<svg width="41" height="41" viewBox="0 0 41 41" fill="none" xmlns="http://www.w3.org/2000/svg">
<path d="M20.5 41C15.0631 41 9.84881 38.8402 6.00431 34.9957C2.15982 31.1512 0 25.9369 0 20.5C0 15.0631 2.15982 9.84881 6.00431 6.00431C9.84881 2.15982 15.0631 0 20.5 0C25.9369 0 31.1512 2.15982 34.9957 6.00431C38.8402 9.84881 41 15.0631 41 20.5C41 25.9369 38.8402 31.1512 34.9957 34.9957C31.1512 38.8402 25.9369 41 20.5 41ZM36.3875 24.6C37.081 21.9107 37.081 19.0893 36.3875 16.4H28.5565C28.7465 19.13 28.7465 21.87 28.5565 24.6H36.3875ZM34.7065 28.7H28.1055C27.7621 31.171 27.1078 33.5886 26.158 35.8955C29.7593 34.567 32.7831 32.0218 34.7065 28.7ZM16.564 24.6H24.436C24.6585 21.8712 24.6585 19.1288 24.436 16.4H16.564C16.3415 19.1288 16.3415 21.8712 16.564 24.6ZM17.0765 28.7C17.917 33.62 19.393 36.9 20.5 36.9C21.607 36.9 23.083 33.62 23.9235 28.7H17.0765ZM4.6125 24.6H12.4435C12.2535 21.87 12.2535 19.13 12.4435 16.4H4.6125C3.91904 19.0893 3.91904 21.9107 4.6125 24.6ZM6.2935 28.7C8.21693 32.0218 11.2407 34.567 14.842 35.8955C13.981 33.9275 13.325 31.4675 12.8945 28.7H6.2935ZM34.7065 12.3C32.7831 8.97819 29.7593 6.43297 26.158 5.1045C27.019 7.0725 27.675 9.5325 28.1055 12.3H34.7065ZM17.0765 12.3H23.9235C23.083 7.38 21.607 4.1 20.5 4.1C19.393 4.1 17.917 7.38 17.0765 12.3ZM6.2935 12.3H12.8945C13.3045 9.5325 13.981 7.0725 14.842 5.1045C11.2407 6.43297 8.21693 8.97819 6.2935 12.3Z" fill="url(#paint0_linear_7_92)"/>
<defs>
<linearGradient id="paint0_linear_7_92" x1="0" y1="21" x2="43.5" y2="21" gradientUnits="userSpaceOnUse">
<stop stop-color="#01EABD"/>
<stop offset="1" stop-color="#01AC8B"/>
</linearGradient>
</defs>
</svg>
