<svg width="45" height="45" viewBox="0 0 45 45" fill="none" xmlns="http://www.w3.org/2000/svg">
<path d="M10.2 28.24L3.64003 26.6C3.64003 26.6 3.64003 21.68 5.28003 16.76C6.92003 11.84 18.4 11.84 18.4 11.84M10.2 28.24L16.76 34.8M10.2 28.24C10.2 28.24 16.76 11.84 24.96 6.92C33.16 2 43 2 43 2C43 2 43 11.84 38.08 20.04C33.16 28.24 16.76 34.8 16.76 34.8M16.76 34.8L18.4 41.36C18.4 41.36 23.32 41.36 28.24 39.72C33.16 38.08 33.16 26.6 33.16 26.6M2 43.0001L8.56 39.7201L5.28 36.4401L2 43.0001ZM31.52 15.1201C31.52 16.0258 30.7857 16.7601 29.88 16.7601C28.9743 16.7601 28.24 16.0258 28.24 15.1201C28.24 14.2143 28.9743 13.4801 29.88 13.4801C30.7857 13.4801 31.52 14.2143 31.52 15.1201Z" stroke="url(#paint0_linear_7_94)" stroke-width="3.5" stroke-linecap="round" stroke-linejoin="round"/>
<defs>
<linearGradient id="paint0_linear_7_94" x1="2" y1="23" x2="43" y2="23" gradientUnits="userSpaceOnUse">
<stop stop-color="#01EABD"/>
<stop offset="1" stop-color="#01AC8B"/>
</linearGradient>
</defs>
</svg>
